<svg width="1160" height="284" viewBox="0 0 1160 284" fill="none" xmlns="http://www.w3.org/2000/svg">
<path d="M568.388 184.329H620.704L616.792 203.153H587.456L584.034 218.31H611.659L607.747 236.4H580.367L576.455 254.002H607.014L603.102 272.826H549.564L568.388 184.329ZM619.482 205.842H642.461L638.55 254.002H638.794L655.418 205.842H678.398L647.84 272.826H621.437L619.482 205.842ZM694.533 243.001L692.577 251.802C691.111 258.891 693.555 260.847 696.733 260.847C700.645 260.847 703.578 258.402 705.534 249.113H725.581C721.914 265.248 712.379 274.293 694.044 274.293C672.531 274.293 667.642 264.514 673.02 239.09C678.398 213.42 688.91 203.886 708.957 203.886C726.803 203.886 734.137 211.709 729.003 236.156L727.536 243.001H694.533ZM709.935 227.844C711.401 220.754 710.668 217.576 706.023 217.576C701.378 217.576 699.178 220.754 697.711 227.844L696.978 230.778H709.201L709.935 227.844ZM740.982 205.842H762.495L760.295 216.599H760.539C764.695 208.531 771.54 204.131 778.141 204.131H781.808L777.408 224.91C775.452 224.421 773.741 224.421 772.029 224.421C764.206 224.421 758.828 227.6 756.872 236.4L749.049 272.826H726.803L740.982 205.842ZM822.39 184.329H844.636L838.525 213.42H838.769C842.436 206.575 848.303 204.131 854.66 204.131C867.616 204.131 873.484 211.954 868.105 237.867C862.727 262.558 855.149 274.537 840.236 274.537C832.413 274.537 828.502 271.115 827.279 263.536H827.035L825.079 272.826H803.566L822.39 184.329ZM835.347 257.914C840.48 257.914 842.681 253.758 845.614 239.334C848.792 224.91 848.548 220.51 843.17 220.51C838.036 220.51 836.08 224.666 832.902 239.334C829.968 253.758 830.213 257.914 835.347 257.914ZM894.263 243.001L892.308 251.802C890.841 258.891 893.286 260.847 896.464 260.847C900.375 260.847 903.309 258.402 905.264 249.113H925.311C921.644 265.248 912.11 274.293 893.774 274.293C872.261 274.293 867.372 264.514 872.75 239.09C878.129 213.42 888.641 203.886 908.687 203.886C926.533 203.886 933.867 211.709 928.733 236.156L927.267 243.001H894.263ZM909.665 227.844C911.132 220.754 910.398 217.576 905.753 217.576C901.108 217.576 898.908 220.754 897.441 227.844L896.708 230.778H908.931L909.665 227.844ZM1002.81 220.754H1011.61L1014.79 205.842H1005.99L1010.14 186.04H987.895L983.739 205.842H967.115L971.271 186.04H949.024L944.868 205.842H937.534L934.356 220.754H941.69L934.112 256.447C930.934 271.359 935.823 273.56 949.513 273.56C953.18 273.56 957.581 273.315 961.737 272.826L964.915 257.914H961.492C957.825 257.914 956.358 256.447 957.336 252.78L964.181 220.754H980.805L973.227 256.447C970.048 271.359 974.938 273.56 988.628 273.56C992.295 273.56 996.695 273.315 1000.85 272.826L1004.03 257.914H1000.61C996.94 257.914 995.473 256.447 996.451 252.78L1002.81 220.754ZM1031.9 243.001L1029.94 251.802C1028.48 258.891 1030.92 260.847 1034.1 260.847C1038.01 260.847 1040.94 258.402 1042.9 249.113H1062.95C1059.28 265.248 1049.74 274.293 1031.41 274.293C1009.9 274.293 1005.01 264.514 1010.39 239.09C1015.76 213.42 1026.28 203.886 1046.32 203.886C1064.17 203.886 1071.5 211.709 1066.37 236.156L1064.9 243.001H1031.9ZM1047.54 227.844C1049.01 220.754 1048.28 217.576 1043.63 217.576C1038.99 217.576 1036.79 220.754 1035.32 227.844L1034.59 230.778H1046.81L1047.54 227.844ZM1078.59 205.842H1100.11L1097.91 216.599H1098.15C1102.31 208.531 1109.15 204.131 1115.75 204.131H1119.42L1115.02 224.91C1113.06 224.421 1111.35 224.421 1109.64 224.421C1101.82 224.421 1096.44 227.6 1094.48 236.4L1086.66 272.826H1064.41L1078.59 205.842ZM1103.53 248.379H1124.31L1119.17 272.826H1098.39L1103.53 248.379ZM1140.93 192.396H1136.29V205.109H1133.84V192.396H1129.2V190.44H1140.69V192.396H1140.93ZM1160 205.109H1157.56V192.885L1152.67 205.109H1151.2L1146.31 192.885V205.109H1143.87V190.44H1147.53L1151.93 201.686L1156.33 190.44H1160V205.109Z" fill="black"/>
<path d="M307.052 0H406.55C442.731 0 461.555 10.7566 454.71 41.5595C450.554 60.3836 439.309 74.8072 412.906 80.6744V81.1633C428.797 82.6301 436.131 89.4752 436.864 102.188C437.597 116.367 431.975 139.591 434.175 164.282H368.902C367.68 152.059 370.124 131.279 370.858 117.1C371.347 109.033 367.68 105.61 356.923 105.61H349.345L336.632 164.038H271.359L307.052 0ZM363.035 68.451C375.747 68.451 386.015 64.0506 388.704 51.8272C391.393 39.8483 383.326 37.1591 370.124 37.1591H364.257L357.412 68.2065H363.035V68.451Z" fill="#E41937"/>
<path d="M473.045 167.705L451.532 50.1159H511.182L513.627 112.7H514.116L543.208 50.1159H599.435L509.716 207.798H448.843L473.045 167.705ZM659.819 151.081C647.106 164.038 632.683 167.705 619.971 167.705C591.612 167.705 575.966 146.436 584.767 105.855C594.057 62.5838 620.215 46.6934 645.64 46.6934C658.596 46.6934 670.331 50.3604 677.42 60.628L690.622 0H746.849L711.157 164.282H658.108L659.819 151.081ZM669.842 89.4752C669.842 82.8746 666.419 78.9631 660.063 78.9631C648.329 78.9631 644.662 88.9863 640.75 107.077C637.328 122.478 636.105 135.191 648.084 135.191C654.441 135.191 657.619 132.502 659.819 129.079C662.263 125.656 664.464 118.811 666.908 107.077C669.109 97.0537 669.842 94.1201 669.842 89.4752ZM859.794 127.612C850.015 153.526 826.546 167.705 782.786 167.705C748.561 167.705 721.18 152.792 731.203 106.588C739.76 67.2287 771.541 46.6934 813.345 46.6934C857.593 46.6934 873.973 68.6955 865.172 109.522L863.461 117.345H783.031L782.297 120.523C779.364 133.724 782.786 139.347 794.032 139.347C800.388 139.347 807.233 135.68 810.655 127.612H859.794ZM817.99 93.1423L818.234 91.431C820.679 80.4299 816.034 74.8072 807.233 74.8072C798.188 74.8072 790.854 80.4299 788.409 91.431L788.164 93.1423H817.99ZM939.979 48.4046L934.356 74.5627H934.845C945.357 58.1833 959.292 45.7155 977.383 45.7155C980.805 45.7155 984.228 46.2044 986.428 46.9378L976.405 93.3867C973.96 92.1644 969.071 91.6754 963.692 91.6754C947.802 91.6754 931.423 105.366 927.756 122.478L918.71 164.527H861.26L886.441 48.6491H939.979" fill="#E41937"/>
<path d="M273.804 11.2455C220.51 21.0242 175.283 36.6702 144.725 56.4721L258.403 81.8967L256.691 89.4752L0 32.2697H161.593C194.107 19.5574 232.733 10.0232 275.271 4.64487L273.804 11.2455ZM481.357 257.669L498.47 227.6C467.423 232 433.686 234.445 398.972 234.445C234.445 234.445 101.21 182.129 101.21 117.589C101.21 101.454 109.522 86.0527 124.679 71.8735L99.4984 66.2508C73.0959 86.7861 57.9389 110.744 57.9389 136.169C57.9389 211.22 188.729 272.337 349.834 272.337C396.771 272.337 441.998 266.959 481.357 257.669Z" fill="black"/>
<path d="M993.273 58.1833C993.273 50.1159 999.874 43.5153 1007.94 43.5153C1016.01 43.5153 1022.61 50.1159 1022.61 58.1833C1022.61 66.2508 1016.01 72.8514 1007.94 72.8514C999.874 72.6069 993.273 66.2508 993.273 58.1833ZM1020.9 58.1833C1020.9 51.0938 1015.28 45.471 1008.19 45.471C1001.1 45.471 995.229 51.0938 995.229 58.1833C995.229 65.2729 1000.85 71.1401 1008.19 71.1401C1015.03 70.8957 1020.9 65.2729 1020.9 58.1833ZM1015.28 66.2508H1012.83L1008.19 58.6723H1004.52V66.2508H1002.56V49.8714H1009.65C1011.12 49.8714 1012.34 49.8714 1013.56 50.6048C1014.79 51.3382 1015.28 52.805 1015.28 54.0274C1015.28 57.2055 1013.07 58.4278 1010.14 58.4278L1015.28 66.2508ZM1007.7 57.2055C1009.9 57.2055 1013.56 57.6944 1013.56 54.2718C1013.56 51.8272 1011.36 51.3382 1009.41 51.3382H1004.76V57.2055H1007.7Z" fill="black"/>
</svg>
